<svg xmlns="http://www.w3.org/2000/svg" xmlns:xlink="http://www.w3.org/1999/xlink" viewBox="0 0 368.74 453.77"><defs><style>.cls-1,.cls-18,.cls-19,.cls-21,.cls-23,.cls-25,.cls-29{fill:none;}.cls-2{isolation:isolate;}.cls-3{fill:#cfecff;}.cls-4{clip-path:url(#clip-path);}.cls-5{fill:#2034aa;}.cls-6{fill:#0f267a;}.cls-7{fill:#18004d;}.cls-8{fill:#fe9393;}.cls-9{fill:#e15f60;}.cls-10{fill:#506aff;}.cls-11{fill:#fff;}.cls-12{fill:#e9edf2;}.cls-13{fill:#4262ea;}.cls-14{fill:#102772;}.cls-15{fill:#435fea;}.cls-16{fill:#3155ba;}.cls-17{fill:#264c9e;}.cls-18{stroke:#435fea;stroke-width:0.63px;}.cls-18,.cls-19,.cls-21,.cls-23,.cls-25{stroke-miterlimit:10;}.cls-19{stroke:#cfecff;stroke-width:0.3px;}.cls-19,.cls-21,.cls-23,.cls-25,.cls-29{stroke-linecap:round;}.cls-20{fill:#31216d;}.cls-21,.cls-25,.cls-29{stroke:#fff;}.cls-21,.cls-23{stroke-width:0.97px;}.cls-22{fill:#3f49a5;}.cls-23{stroke:#3f49a5;}.cls-24{fill:#9dbeed;}.cls-25{stroke-width:0.97px;}.cls-26{fill:#b8e2f4;}.cls-27{fill:#aba6e2;}.cls-28{fill:#eb5d62;}.cls-29{stroke-linejoin:round;stroke-width:0.6px;}.cls-30{fill:#a1a1e5;opacity:0.63;mix-blend-mode:multiply;}</style><clipPath id="clip-path" transform="translate(-19.04 -39.06)"><rect class="cls-1" x="17.3" y="51.82" width="359.45" height="235.68"/></clipPath></defs><title>2693155</title><g class="cls-2"><g id="OBJECTS"><path class="cls-3" d="M27.39,287.8S1,256.12,42.1,210.48s14.6-74.9,48.17-127.7,118.19-59,155.88,2.85c10.28,16.88,46.39,59.6,71.66,72,20.49,10.09,68.48,17.63,70,78.28.34,14-9,39.34-21.3,51.85Z" transform="translate(-19.04 -39.06)"/><g class="cls-4"><path class="cls-5" d="M145.09,299.34H119.55l-.87-2.09h0l-4.75-11.53v-33h24.61S143.34,278.85,145.09,299.34Z" transform="translate(-19.04 -39.06)"/><path class="cls-6" d="M118.68,297.24,114,290.1l0-11.58,4-6.92S118.72,288,118.68,297.24Z" transform="translate(-19.04 -39.06)"/><path class="cls-5" d="M85.05,250.13a50.54,50.54,0,0,0-4.34,15c-.81,6.47.73,32.6.73,32.6l25.69,4.45s8.67-17,14.38-44.89c2.59-12.62-22.23-6.76-22.23-6.76" transform="translate(-19.04 -39.06)"/><path class="cls-7" d="M135.68,105.1s.63,5.47-1.21,9.38-4.15-8.27-4.15-8.27l1.25-4.4" transform="translate(-19.04 -39.06)"/><path class="cls-8" d="M121.59,131.84s-.27.77-.66,2-1,3.28-1.51,5.38a34,34,0,0,0-1.25,9.39s-9.94,1-14.83-2c0,0,3-11.93-1.31-23.61Z" transform="translate(-19.04 -39.06)"/><path class="cls-9" d="M120.93,133.86c-.42,1.36-1,3.28-1.51,5.38-8.64-2.8-13.55-10.53-13.55-10.53Z" transform="translate(-19.04 -39.06)"/><path class="cls-8" d="M103.62,128.72c3.93,4.56,26,13.8,29.09,2.86s1.58-23.91,0-31.8c-1-4.9-3.59-14.22-16.66-12.78S86.39,108.7,103.62,128.72Z" transform="translate(-19.04 -39.06)"/><path class="cls-7" d="M97.14,98.59s-10.6,1-12.58-5.77S90.14,77.44,96.8,81s6,12.28,6,12.28" transform="translate(-19.04 -39.06)"/><path class="cls-10" d="M92.57,99.45s1.12-10.07,10.7-11.89l-3.59,6Z" transform="translate(-19.04 -39.06)"/><path class="cls-7" d="M131.1,96.93s-3.65,15.68-25.42,16.34a2.47,2.47,0,0,0-3,1.29,6.78,6.78,0,0,0-.1,4.52c1.34,4.2,2.19,8.52,1.49,12.87l.06.5s-10.8-1.36-13.74-16.9c-3.4-18,13-32.52,24.18-30.79C119.33,85.49,130.1,89.46,131.1,96.93Z" transform="translate(-19.04 -39.06)"/><path class="cls-7" d="M124.12,96.58s6.79,9.33,12.06,9.59c0,0,1.68-12.71-5.52-17.87-9.83-7-21-3.35-21-3.35" transform="translate(-19.04 -39.06)"/><path class="cls-8" d="M103.91,143.79a3.79,3.79,0,0,1-1.88,2.73,66.34,66.34,0,0,1-9.45,4.39s20.77,14.92,36.11-1c0,0-5.55-1.69-7.1-2.81-3.72-2.69-3-4-3-4" transform="translate(-19.04 -39.06)"/><path class="cls-8" d="M130.12,182.64s3.61,11,6.57,19.31a40.13,40.13,0,0,0,4,8.46c1.56,2,3.66,4.41,7.4,2.42s4.32-3.72,3.65-7.51-7-26.31-7-26.31" transform="translate(-19.04 -39.06)"/><path class="cls-8" d="M136.69,202s5.17,17.52,12.55,15.88c3.82-1,10.52-15.65,13.53-21.46C172.25,178.08,173,174,173,174l-4.79-2.23s-19,24.39-20.47,26.69" transform="translate(-19.04 -39.06)"/><path class="cls-11" d="M138.54,252.67c-23.39,5.19-44.94,1.93-54.69.23-1.13-3.22.45-8.49,1.71-13.41,3.82-15.08,2-32.55.71-42.89-.53-4.15-1-7.14-1-8.39,0-1-.08-2.28-.18-3.74-.7-9-3-25-3.22-27.16-.23-2.5,14.21-8,14.21-8s25.59,15.43,27.22-1.47A91.26,91.26,0,0,1,136,152.9c1.08,7.38,1.62,23.44,1.82,31.75.09,3.17-2.66,9.14-2.66,9.14s.41,25,1.68,43.23C137.27,243.63,138.88,250.12,138.54,252.67Z" transform="translate(-19.04 -39.06)"/><path class="cls-12" d="M92.38,176.37S92,189.2,90.45,196a11.4,11.4,0,0,1-4.18.65c-.53-4.15-1-7.14-1-8.39,0-1-.08-2.28-.18-3.74Z" transform="translate(-19.04 -39.06)"/><polygon class="cls-13" points="100.59 207.1 61.74 202.94 68.22 146.28 107.08 150.45 100.59 207.1"/><polygon class="cls-10" points="97.78 206.8 58.92 202.63 65.41 145.98 104.26 150.14 97.78 206.8"/><path class="cls-8" d="M74.52,181.52s-1.33,11.54-2.1,20.28a39.61,39.61,0,0,0,.13,9.38c.58,2.46,1.47,5.54,5.71,5.3s5.47-1.57,6.46-5.3,4.62-26.84,4.62-26.84" transform="translate(-19.04 -39.06)"/><path class="cls-8" d="M72.38,202.24s-1.6,12.95,2.72,17c2.81,1.81,9.13,2.3,15.64,2.93,20.51,2,24.61,1.17,24.61,1.17l.28-5.27s-29.69-8.54-32.38-9.07" transform="translate(-19.04 -39.06)"/><path class="cls-8" d="M112.62,217.26a7.93,7.93,0,0,0,4.45,0c1.08-.37,2.33-1.21,3-1.42a16.07,16.07,0,0,1,4.42.67c.48.19,0,1-.51,1.16a11.17,11.17,0,0,1-1.92.16l-1.22,1.08-.27,6.4a6.5,6.5,0,0,1-2.52.3c-1.76-.05-3.24-1.75-6.76-2" transform="translate(-19.04 -39.06)"/><path class="cls-8" d="M122.48,217.42s1.42.57,1.53,1.07-.41,5.83-1.26,6.47c-.53.39-3.4.55-3.4.55l-.36-1.94s-.07-4,0-4.1S120.7,218,120.7,218l1.77-.6" transform="translate(-19.04 -39.06)"/><path class="cls-8" d="M107.88,113.87s-.66-4.82-5-3.24c-3.41,1.25-1.13,7.65.16,9.82s3.86,1.6,4.24,0" transform="translate(-19.04 -39.06)"/><path class="cls-11" d="M149.26,192s-6.8-36.31-13.31-39c.61,4.12-5.3,14.24-4.85,21.68a102,102,0,0,0,3.39,20.28C144,194.44,149.26,192,149.26,192Z" transform="translate(-19.04 -39.06)"/><path class="cls-11" d="M86,153.85s-10.18,4.16-13,19.25C70.22,187.2,69.75,193,69.75,193s11.89,3.74,19.1,1.77c1.35-4.66,3.73-19.64,3.73-19.64" transform="translate(-19.04 -39.06)"/><path class="cls-12" d="M131.86,165.76s3.37,7.34,5.09,12.38-1.82,15.64-1.82,15.64,3.85-6.8,3.37-14S131.86,165.76,131.86,165.76Z" transform="translate(-19.04 -39.06)"/><path class="cls-8" d="M166.52,173.94a12.57,12.57,0,0,0,1.2-2.57c.13-2.56.14-9.61,1.55-12.18a1.15,1.15,0,0,1,1.39.87c.42,1.16-.51,3.26-.08,4.33s1,.6,1.81,0a23.28,23.28,0,0,0,3.43-5c.43-1.36,1.1-2.88,1.4-2.87.78,0,.65,1.15.57,2.1a15.28,15.28,0,0,1-.5,1.86,14.63,14.63,0,0,1-1.18,2.63s.59-.86,1.69-2.17c.36-.81.74-1.43,1.18-2.53.38-1.36,1.06-1.56,1.36-1.28s0,1.31-.42,2.94a10.43,10.43,0,0,1-1.14,2.47c-.75,1.15-1.38,2-1.38,2s.75-1,1.68-2.07a12,12,0,0,0,1.45-2.48c.16-1.74,1.09-2.35,1.32-2a6.14,6.14,0,0,1-.12,2.79,7,7,0,0,1-.95,2.43c-.9,1.3-1.84,2.47-1.84,2.47s2.65-3.56,3.12-3.07-2,4.24-2.75,5.4-2.7,3.42-3.71,3.86-3.25,4.17-3.53,5" transform="translate(-19.04 -39.06)"/><path class="cls-8" d="M180.61,163.55s1-1.87,1.2-2.05.63-.68,1-.36-1.14,3.06-1.14,3.06" transform="translate(-19.04 -39.06)"/><path class="cls-7" d="M129.92,98.28a14.81,14.81,0,0,1-.79,3.58,17.21,17.21,0,0,1-1.66,3.29,16.82,16.82,0,0,1-5.32,5.13,21,21,0,0,1-7,2.44c-1.21.21-2.45.24-3.66.36-1.22,0-2.44-.08-3.65-.16,1.21-.12,2.42-.17,3.62-.27s2.4-.31,3.56-.59a26.45,26.45,0,0,0,3.42-1,14,14,0,0,0,1.65-.68l1.57-.83A18,18,0,0,0,129.92,98.28Z" transform="translate(-19.04 -39.06)"/><circle class="cls-11" cx="85.41" cy="81.21" r="1.03"/><path class="cls-9" d="M103.3,113.56a1.7,1.7,0,0,1,2.1.76c1.15,1.67.86,3.44-.44,3.19-.72-.14-.8-1.16-.48-1.74a.9.9,0,0,1,1-.43S105.06,113.33,103.3,113.56Z" transform="translate(-19.04 -39.06)"/><path class="cls-8" d="M259.27,459.36v15.32a21.59,21.59,0,0,0,9.8,0l.73-17.14" transform="translate(-19.04 -39.06)"/><path class="cls-5" d="M269.16,472.62s-1.33,1.38-6.13,1.21a6.48,6.48,0,0,0-5.93-1s-4.83,4.21-8.24,4.91-7.42,1.1-8.34,2.6a3.1,3.1,0,0,0-.58,2.49s-.23.64,3.94.81,17.54-.4,19.86-.29,5.45.18,6.89-.29S272,475.29,269.16,472.62Z" transform="translate(-19.04 -39.06)"/><path class="cls-5" d="M294.8,297a73.71,73.71,0,0,1-.84,7.8c-.75,4.51-2.64,11.66-4.92,19.65-4,13.73-9.13,29.9-12,39.26,11.19,22.91-4.77,98.79-6.78,105.08a24.22,24.22,0,0,1-11.84-.61c-2.39-35-6.5-106.06-6.45-107.76.92-36,5.33-69.13,5.69-74.41s.92-34.86,3.46-35.86c5.59-2.09,20.1-6.91,26.64,2.62C294.55,262.74,295.63,283.56,294.8,297Z" transform="translate(-19.04 -39.06)"/><path class="cls-14" d="M294.8,297a73.71,73.71,0,0,1-.84,7.8c-.75,4.51-2.64,11.66-4.92,19.65-.7-11.33-2-42.79-2-42.79Z" transform="translate(-19.04 -39.06)"/><path class="cls-8" d="M305.5,465.53l1.1,15.29a21.67,21.67,0,0,0,9.77-.7l-.5-17.15" transform="translate(-19.04 -39.06)"/><path class="cls-5" d="M320.45,487.31c-1.25.83-4.29,1.61-6.58,2.11-1.25.25-5.75,1.64-10.17,3a10.67,10.67,0,0,1-5.38.15l-6.4-1.48a1.43,1.43,0,0,1-1.29-1.7c.4-1.32,1.78-2.18,3.74-2.1a8.68,8.68,0,0,0,1.51-.09,10.74,10.74,0,0,0,6-3.1c1.62-1.62,2.83-3.08,2.83-3.08a6.53,6.53,0,0,1,6-.56c4.69-1.11,5.59-2.79,5.59-2.79C319.68,479.5,321.72,486.49,320.45,487.31Z" transform="translate(-19.04 -39.06)"/><path class="cls-5" d="M317.17,473.31a16.62,16.62,0,0,1-12.35.85c.66,1.58-15-78.87-16.83-94.9-.11-1-.55-5.3-.65-6.72-.7-8.34.33-49.75.05-66.1l.52-52.19s-15.43-1.44-4.57.42c13.8,2.33,32.35-.52,32.35-.52,18.2,24.61,15.13,47.35,11.64,58.26a104.52,104.52,0,0,0-3.43,13.46c-3,16.81-11,38.42-12.91,49.68C327.79,415.15,318.64,460.75,317.17,473.31Z" transform="translate(-19.04 -39.06)"/><path class="cls-8" d="M202,208,194,206a19.68,19.68,0,0,1-4.4-4c-2.75-3.11-6.69-2.76-7.52-2.72s-.9,1.08.57,2.08c1,.67,2.69.36,3.27,2.65.26,1-2.63,1.06-4.12.56s-6.55-2.91-7.84-3.45-2.39.28,1,2.76a44.07,44.07,0,0,0,5.39,3.47,16,16,0,0,0,1.19,2.11,1.7,1.7,0,0,0,.6.4,15.19,15.19,0,0,0,1.12,2,1.09,1.09,0,0,0,.26.21c.31.65.6,1.28.87,1.82,1,2.1,5.1,1.51,6.88,1.28s9.43,1.5,9.43,1.5Z" transform="translate(-19.04 -39.06)"/><path class="cls-8" d="M182.47,207.28a20.07,20.07,0,0,1-5.11-1.07c-3-1-6.82-3.13-7.61-3.22s-.87.91,0,1.7a29.5,29.5,0,0,0,4.75,2.91,90.39,90.39,0,0,0,8.91,2.7" transform="translate(-19.04 -39.06)"/><path class="cls-8" d="M183.52,209.4a20.41,20.41,0,0,1-5.2-.49c-3.09-.66-7.13-2.35-7.92-2.34s-.76,1,.19,1.68a28.61,28.61,0,0,0,5,2.36c1.75.64,9.17,2.47,9.17,2.47" transform="translate(-19.04 -39.06)"/><path class="cls-8" d="M186,212.49a20,20,0,0,1-5.19-.48c-3.1-.66-7.14-2.35-7.93-2.35s-.76,1,.19,1.69a29.7,29.7,0,0,0,5,2.36,89.68,89.68,0,0,0,9.17,1.67" transform="translate(-19.04 -39.06)"/><path class="cls-15" d="M274.36,183.1c-4.88,12.11-16.86,31.66-16.86,31.66-7.76.67-18.21-3-18.21-3,1.35-14.69,14.6-54.44,14.6-54.44s.8-6.27,17.81-10.71" transform="translate(-19.04 -39.06)"/><path class="cls-15" d="M246.7,211l-47.41-4.17-1.74,9.82s35.84,13.75,49.24,13.74c11,0,19.65-31.13,19.65-31.13Z" transform="translate(-19.04 -39.06)"/><path class="cls-16" d="M257.28,167.82s-2.39,36-3.46,58.49a44,44,0,0,0,5.16-7.9Z" transform="translate(-19.04 -39.06)"/><path class="cls-15" d="M321.23,207.32c-.79,4.21-2.14,11.19-3.38,18.14-.47,2.64-.94,5.26-1.34,7.72-.91,5.53-1,9.94-.6,12.42.91,5.54,2,8,.63,9.6-3.14,3.66-24.69,5.2-34.8,5.2-9,0-24.33-2.41-25.1-5.29-1.16-4.28.27-4.28.67-8.78S255.12,158,258.67,154c4.17-3.46,10.82-6.84,17.48-9,4.73-.78,12.76-.44,21.2,1.76,9.81,2.54,21.21,4.69,22.91,8.41C321.86,158.63,323.59,194.83,321.23,207.32Z" transform="translate(-19.04 -39.06)"/><path class="cls-17" d="M317.85,225.46c-.47,2.64-.94,5.26-1.34,7.72-16.85-6.84-45.2-21.49-46.07-22Z" transform="translate(-19.04 -39.06)"/><path class="cls-16" d="M319.47,217.41l-4.54-25-5.06-9.11s.56,9.6,1.39,20.92c-11.92-1.68-36-3.88-36-3.88s22.29,7,23.19,7.16c.72.17,9.76,1.24,13.16,1.65.21,2.74.43,5.52.66,8.22Z" transform="translate(-19.04 -39.06)"/><path class="cls-8" d="M257.28,197.43s-7.56,1.74-7.86,2.19,0,1.68,2.47,1.79a10.89,10.89,0,0,0,4.94-1.19" transform="translate(-19.04 -39.06)"/><path class="cls-8" d="M256.08,201.7,251.45,205s-2.88,3.74-2.73,4a1.39,1.39,0,0,0,1.89-.23c.86-.78,2.56-2.41,2.56-2.41l4.47-1.68" transform="translate(-19.04 -39.06)"/><path class="cls-8" d="M258,202.93l-4.64,3.25s-2.88,3.74-2.73,4a1.38,1.38,0,0,0,1.89-.22c.86-.79,2.56-2.41,2.56-2.41l4.47-1.69" transform="translate(-19.04 -39.06)"/><path class="cls-8" d="M260,204.14l-4.64,3.25s-2.88,3.74-2.73,4a1.39,1.39,0,0,0,1.89-.23c.86-.78,2.56-2.41,2.56-2.41l4.47-1.68" transform="translate(-19.04 -39.06)"/><path class="cls-8" d="M274.73,202.42l-7.85-4s-8.23-1-9.4-1-6.9,4.15-7.72,4.5-4.23,6.59-4.23,6.59a1,1,0,0,0,1.05.6c.86,0,4.6-4.53,4.6-4.53l4.34-2.35a14.14,14.14,0,0,0,2.46,5.27c1.52,1.86,5.45,1.15,8.46.87a11.87,11.87,0,0,1,3.54.25" transform="translate(-19.04 -39.06)"/><path class="cls-15" d="M340.77,223.89a13.87,13.87,0,0,0,.11-1.59c0-12.52-1.47-46-14.62-63.23-5.1-6.69-16.8-9.32-16.8-9.32l.25,31.09c.32,11.6,8.14,43,8.14,43Z" transform="translate(-19.04 -39.06)"/><path class="cls-15" d="M269.82,204.19a19.94,19.94,0,0,0-.94,6.63s50,21.13,64.21,22.59h0l-.53-22.91-60.21-10.64A12.16,12.16,0,0,0,269.82,204.19Z" transform="translate(-19.04 -39.06)"/><path class="cls-15" d="M333.09,233.41s8.43,1.65,7.79-12.51c-.56-12.48-11.72-9.17-11.72-9.17l-2.54,10.32Z" transform="translate(-19.04 -39.06)"/><path class="cls-8" d="M297.37,146.66v0s-9.52,7.18-21.2-1.75c0,0,1.48-2.82,1.73-3.33a25.72,25.72,0,0,0,2.71-7c.08-.23.12-.49.19-.76a25.09,25.09,0,0,0,.49-3.36,28.25,28.25,0,0,0-.17-6.88l1.13-.92L300.87,108l2.13-1.66s-.62,3.56-1.47,8.78c-.46,3-1,6.43-1.58,10.09C298.88,132.65,297.81,140.78,297.37,146.66Z" transform="translate(-19.04 -39.06)"/><path class="cls-9" d="M294.46,125.64l0,0c-2.67,3.88-8.69,11.61-16.55,15.94a25.72,25.72,0,0,0,2.71-7,16,16,0,0,1-3.43.66c.05-.85.09-1.74.07-2.67l1.25-.74,2.79-1.37L296,123.28S295.48,124.19,294.46,125.64Z" transform="translate(-19.04 -39.06)"/><path class="cls-7" d="M265.05,95.2s-3.25,8.88,2.54,13.93l2.77-13.53Z" transform="translate(-19.04 -39.06)"/><path class="cls-8" d="M297.5,121.87a39.45,39.45,0,0,1-3,3.77l0,0a35.2,35.2,0,0,1-6.05,5.23,25.45,25.45,0,0,1-7.79,3.68,16,16,0,0,1-3.43.66,13.14,13.14,0,0,1-7.85-1.48c-4.64-6.9-4.47-18.08-3.41-26.57.41-3.43,1-6.42,1.43-8.51.41-1.89.72-3,.72-3s0-.14.05-.23c2-11,16.66-11.33,26.73-5.17a17.79,17.79,0,0,1,1.7,1.18,19.67,19.67,0,0,1,6.5,7.62c2.36,5.18.91,11.06-1.51,16.07l-.39.79A46.89,46.89,0,0,1,297.5,121.87Z" transform="translate(-19.04 -39.06)"/><path class="cls-7" d="M298.1,89.43s-11.93,18.39-31.94,8.72c-5.85-2.83-7.15-22.73-2-18.76C274.67,87.55,283,72,293.07,77.26,296.31,78.94,299.51,83,298.1,89.43Z" transform="translate(-19.04 -39.06)"/><path class="cls-7" d="M294.14,91.76s-6.94,36.12.39,19.53c0,0,1.86-4.62,5.22-4.2s.66,12.85.2,18.11c0,0,7.7-5.5,10.54-21.89s-8.19-23.12-14.29-16Z" transform="translate(-19.04 -39.06)"/><path class="cls-9" d="M299.09,109.67s-1.89.26-2.29,3.72,1.83,4.16,2.28,2.33-1.24-2.93-1.61-2.17A4.25,4.25,0,0,1,299.09,109.67Z" transform="translate(-19.04 -39.06)"/><path class="cls-18" d="M263.25,107.62a2.42,2.42,0,0,1,2.33-1.89,20.05,20.05,0,0,1,5.48,1c1.34.6,2.15,1.71,1.16,4.42-.62,1.7-1.91,3.7-5.44,3.08C263.82,113.74,262.79,110.77,263.25,107.62Z" transform="translate(-19.04 -39.06)"/><path class="cls-18" d="M278,107.56a24.59,24.59,0,0,1,6.88.9,2.85,2.85,0,0,1,1.87,3.35c-1,3.5-2.28,5.64-7.08,4.89-4-.62-4-4.86-3.83-7.31A2.12,2.12,0,0,1,278,107.56Z" transform="translate(-19.04 -39.06)"/><path class="cls-18" d="M272.66,109.67a3.62,3.62,0,0,1,3.13.37" transform="translate(-19.04 -39.06)"/><path class="cls-18" d="M286.83,111.45s6.79-.75,8.94-1.15" transform="translate(-19.04 -39.06)"/><path class="cls-8" d="M294.3,111.8a10.22,10.22,0,0,1,2.76-3.93l-.15,2.25Z" transform="translate(-19.04 -39.06)"/><path class="cls-7" d="M242.89,211.73h-77.4a1.87,1.87,0,0,1-1.84-1.53l-10.36-55.63a2.58,2.58,0,0,1,2.54-3h73.7a2.56,2.56,0,0,1,2.53,2.11Z" transform="translate(-19.04 -39.06)"/><path class="cls-7" d="M266.66,211.73H229.89v-3.14H265.1a2.3,2.3,0,0,1,2,1.14l.37.63A.91.91,0,0,1,266.66,211.73Z" transform="translate(-19.04 -39.06)"/><path class="cls-19" d="M228.28,154.11a1.53,1.53,0,0,1,1.5,1.23l10.08,51.3" transform="translate(-19.04 -39.06)"/><path class="cls-19" d="M183,154.11" transform="translate(-19.04 -39.06)"/><path class="cls-19" d="M162.83,193.62" transform="translate(-19.04 -39.06)"/><path class="cls-20" d="M199.67,182.22c0,2.26-2.46,4.09-5.49,4.09s-5.48-1.83-5.48-4.09,2.46-4.08,5.48-4.08S199.67,180,199.67,182.22Z" transform="translate(-19.04 -39.06)"/></g><line class="cls-21" x1="175.1" y1="21.3" x2="179.75" y2="21.3"/><line class="cls-21" x1="177.43" y1="18.98" x2="177.43" y2="23.63"/><line class="cls-21" x1="210.3" y1="196.16" x2="214.96" y2="196.16"/><line class="cls-21" x1="212.63" y1="193.83" x2="212.63" y2="198.49"/><path class="cls-11" d="M238.27,94.75a2.14,2.14,0,1,1-2.13-2.13A2.13,2.13,0,0,1,238.27,94.75Z" transform="translate(-19.04 -39.06)"/><path class="cls-11" d="M166.66,138.36a2.14,2.14,0,1,1-2.14-2.13A2.14,2.14,0,0,1,166.66,138.36Z" transform="translate(-19.04 -39.06)"/><path class="cls-11" d="M140.66,60.37a2.14,2.14,0,1,1-2.14-2.14A2.14,2.14,0,0,1,140.66,60.37Z" transform="translate(-19.04 -39.06)"/><path class="cls-3" d="M353.1,120.34a2.14,2.14,0,1,1-2.14-2.13A2.14,2.14,0,0,1,353.1,120.34Z" transform="translate(-19.04 -39.06)"/><path class="cls-3" d="M312.72,134.94a2.14,2.14,0,1,1-2.13-2.13A2.13,2.13,0,0,1,312.72,134.94Z" transform="translate(-19.04 -39.06)"/><path class="cls-3" d="M221.76,41.2a2.14,2.14,0,1,1-2.13-2.14A2.13,2.13,0,0,1,221.76,41.2Z" transform="translate(-19.04 -39.06)"/><path class="cls-22" d="M377.73,207.22a2.14,2.14,0,1,1-2.14-2.13A2.14,2.14,0,0,1,377.73,207.22Z" transform="translate(-19.04 -39.06)"/><path class="cls-11" d="M172.86,274.3a2.14,2.14,0,1,1-2.13-2.14A2.13,2.13,0,0,1,172.86,274.3Z" transform="translate(-19.04 -39.06)"/><path class="cls-3" d="M39.57,203.36a2.14,2.14,0,1,1-2.14-2.13A2.14,2.14,0,0,1,39.57,203.36Z" transform="translate(-19.04 -39.06)"/><line class="cls-23" x1="253.83" y1="6.64" x2="258.49" y2="6.64"/><line class="cls-23" x1="256.16" y1="4.31" x2="256.16" y2="8.97"/><line class="cls-23" x1="329.59" y1="53.36" x2="334.25" y2="53.36"/><line class="cls-23" x1="331.92" y1="51.03" x2="331.92" y2="55.69"/><line class="cls-23" x1="336.99" y1="224.45" x2="341.65" y2="224.45"/><line class="cls-23" x1="339.32" y1="222.12" x2="339.32" y2="226.78"/><line class="cls-21" x1="14.32" y1="220.59" x2="18.97" y2="220.59"/><line class="cls-21" x1="16.64" y1="218.27" x2="16.64" y2="222.92"/><path class="cls-24" d="M78.39,104.84H41.64A3.64,3.64,0,0,0,38,108.47v9.69a3.64,3.64,0,0,0,3.63,3.63H70.15l5.27,5.26v-5.26h3A3.64,3.64,0,0,0,82,118.16v-9.69A3.64,3.64,0,0,0,78.39,104.84Z" transform="translate(-19.04 -39.06)"/><line class="cls-25" x1="24.46" y1="70.4" x2="52.63" y2="70.4"/><line class="cls-25" x1="24.46" y1="74.25" x2="57" y2="74.25"/><line class="cls-25" x1="24.46" y1="78.11" x2="36.13" y2="78.11"/><path class="cls-24" d="M252.38,110.6H215.63a3.62,3.62,0,0,0-3.63,3.62v9.7a3.62,3.62,0,0,0,3.63,3.62h28.51l5.26,5.27v-5.27h3a3.62,3.62,0,0,0,3.62-3.62v-9.7A3.62,3.62,0,0,0,252.38,110.6Z" transform="translate(-19.04 -39.06)"/><line class="cls-25" x1="198.45" y1="76.16" x2="226.62" y2="76.16"/><line class="cls-25" x1="198.45" y1="80.01" x2="215.6" y2="80.01"/><line class="cls-25" x1="218.05" y1="80.01" x2="230.99" y2="80.01"/><line class="cls-25" x1="198.45" y1="83.86" x2="210.12" y2="83.86"/><path class="cls-26" d="M192,96.88a22,22,0,0,1-1.09,6.91,22.37,22.37,0,0,1-38.54,7.33h0A22.37,22.37,0,1,1,192,96.88Z" transform="translate(-19.04 -39.06)"/><path class="cls-24" d="M194.2,96.2a24.46,24.46,0,0,1-1.2,7.59L169.63,96.2V71.63A24.58,24.58,0,0,1,194.2,96.2Z" transform="translate(-19.04 -39.06)"/><path class="cls-11" d="M169.63,96.2l-8,26a26.42,26.42,0,0,1-12.37-8.35h0Z" transform="translate(-19.04 -39.06)"/><rect class="cls-24" x="168.92" y="206.39" width="6.49" height="29.64"/><rect class="cls-24" x="179.35" y="211.14" width="6.49" height="24.88"/><rect class="cls-24" x="158.58" y="215.19" width="6.49" height="20.83"/><rect class="cls-24" x="189.78" y="202.44" width="6.49" height="33.58"/><path class="cls-24" d="M180.89,251.77a1.61,1.61,0,0,0,1.62-1.61,1.65,1.65,0,0,0-.17-.71l8-7.72a1.58,1.58,0,0,0,.86.26,1.62,1.62,0,0,0,1.17-.5l7.67,4.58a2,2,0,0,0,0,.25,1.62,1.62,0,0,0,3.23,0,1.57,1.57,0,0,0-.21-.78l8.41-10a1.6,1.6,0,0,0,.62.13,1.63,1.63,0,1,0-1.36-.75l-8.37,10a1.69,1.69,0,0,0-.71-.17,1.63,1.63,0,0,0-1.16.5l-7.68-4.58a2,2,0,0,0,0-.24,1.62,1.62,0,1,0-3.23,0,1.54,1.54,0,0,0,.12.61l-8,7.76a1.57,1.57,0,0,0-.78-.21,1.62,1.62,0,0,0,0,3.23Z" transform="translate(-19.04 -39.06)"/><path class="cls-11" d="M62.62,239.9v-3.5H61.16a9.22,9.22,0,0,0-1.41-3.4l1-1-2.47-2.48-1,1a9.06,9.06,0,0,0-3.4-1.41v-1.46h-3.5v1.46a9.06,9.06,0,0,0-3.4,1.41l-1-1L43.48,232l1,1a9.22,9.22,0,0,0-1.41,3.4H41.64v3.5H43.1a9.22,9.22,0,0,0,1.41,3.4l-1,1L46,246.8l1-1a9.21,9.21,0,0,0,3.4,1.4v1.47h3.5v-1.47a9.21,9.21,0,0,0,3.4-1.4l1,1,2.47-2.47-1-1a9.22,9.22,0,0,0,1.41-3.4ZM52.13,244A5.84,5.84,0,1,1,58,238.15,5.84,5.84,0,0,1,52.13,244Z" transform="translate(-19.04 -39.06)"/><path class="cls-11" d="M73.54,248.92v-2.34h-1a6.12,6.12,0,0,0-.94-2.28l.69-.69L70.65,242l-.69.69a6,6,0,0,0-2.27-.94v-1H65.35v1a6.05,6.05,0,0,0-2.28.94l-.69-.69-1.66,1.65.69.69a6.29,6.29,0,0,0-.94,2.28h-1v2.34h1a6.29,6.29,0,0,0,.94,2.28l-.69.69,1.66,1.65.69-.69a6.05,6.05,0,0,0,2.28.94v1h2.34v-1a6,6,0,0,0,2.27-.94l.69.69,1.66-1.65-.69-.69a6.29,6.29,0,0,0,.94-2.28Zm-7,2.74a3.91,3.91,0,1,1,3.9-3.91A3.91,3.91,0,0,1,66.52,251.66Z" transform="translate(-19.04 -39.06)"/><rect class="cls-11" x="328.55" y="193.5" width="20.61" height="14.05"/><path class="cls-27" d="M347.59,246.61c1.63-1.53,3.3-3,5-4.45s3.4-2.87,5.1-4.31l.21-.18.22.18,2.56,2.15c.85.72,1.71,1.42,2.54,2.16,1.69,1.46,3.36,2.92,5,4.45-1.81-1.31-3.57-2.67-5.32-4-.89-.68-1.74-1.4-2.61-2.09l-2.59-2.1h.43c-1.73,1.39-3.45,2.81-5.2,4.18S349.4,245.3,347.59,246.61Z" transform="translate(-19.04 -39.06)"/><polyline class="cls-11" points="328.55 193.5 338.85 201.99 349.16 193.5"/><path class="cls-27" d="M347.59,232.56c1.81,1.31,3.57,2.67,5.32,4.05s3.47,2.79,5.2,4.18h-.43l2.59-2.1c.87-.69,1.72-1.41,2.61-2.09,1.75-1.37,3.51-2.73,5.32-4-1.63,1.53-3.3,3-5,4.45-.83.74-1.69,1.44-2.54,2.16l-2.56,2.15-.22.18-.21-.18c-1.7-1.44-3.42-2.85-5.1-4.31S349.22,234.09,347.59,232.56Z" transform="translate(-19.04 -39.06)"/><path class="cls-28" d="M365.85,232.25a2.75,2.75,0,1,1-2.75-2.74A2.75,2.75,0,0,1,365.85,232.25Z" transform="translate(-19.04 -39.06)"/><polyline class="cls-29" points="342.51 192.99 343.73 194.4 345.62 192.3"/><path class="cls-3" d="M320,100.58a10.56,10.56,0,0,1,8.4-17,10.58,10.58,0,1,1-5.6,19.53l-5,2.76Z" transform="translate(-19.04 -39.06)"/><path class="cls-28" d="M332.4,94.75A1.77,1.77,0,1,0,334.17,93,1.77,1.77,0,0,0,332.4,94.75Z" transform="translate(-19.04 -39.06)"/><path class="cls-28" d="M326.64,94.75A1.77,1.77,0,1,0,328.4,93,1.76,1.76,0,0,0,326.64,94.75Z" transform="translate(-19.04 -39.06)"/><path class="cls-28" d="M320.87,94.75A1.77,1.77,0,1,0,322.64,93,1.77,1.77,0,0,0,320.87,94.75Z" transform="translate(-19.04 -39.06)"/><path class="cls-3" d="M353,133.33a11.82,11.82,0,1,0,1.58,11.88h0A11.8,11.8,0,0,0,353,133.33Zm-9.33,14.28a7,7,0,1,1,5.48-11.38,7,7,0,0,1-5.48,11.38Z" transform="translate(-19.04 -39.06)"/><path class="cls-24" d="M353,133.33l-3.85,2.9a7,7,0,0,0-5.48-2.64v-4.82A11.82,11.82,0,0,1,353,133.33Z" transform="translate(-19.04 -39.06)"/><path class="cls-30" d="M354.55,145.2h0a11.84,11.84,0,0,1-20.72,2l3.95-2.75a7,7,0,0,0,12.35-1.21Z" transform="translate(-19.04 -39.06)"/></g></g></svg>